<?xml version="1.0" encoding="UTF-8"?>
<svg xmlns="http://www.w3.org/2000/svg" xmlns:xlink="http://www.w3.org/1999/xlink" width="25px" height="25px" viewBox="0 0 25 22" version="1.1">
<g id="surface1">
<path style=" stroke:none;fill-rule:nonzero;fill:rgb(0%,0%,0%);fill-opacity:1;" d="M 14.476562 8.652344 C 14.476562 7.703125 13.796875 7.179688 12.609375 7.179688 L 10.421875 7.179688 L 10.421875 10.238281 L 12.265625 10.238281 C 13.6875 10.234375 14.476562 9.667969 14.476562 8.652344 Z M 22.4375 8.105469 C 22.027344 6.777344 21.964844 5.148438 22.015625 3.890625 C 22.0625 2.578125 21.027344 1.375 19.640625 1.375 L 5.367188 1.375 C 3.976562 1.375 2.945312 2.582031 2.996094 3.890625 C 3.039062 5.148438 2.980469 6.777344 2.570312 8.105469 C 2.152344 9.4375 1.453125 10.277344 0.304688 10.386719 L 0.304688 11.609375 C 1.449219 11.71875 2.152344 12.558594 2.570312 13.890625 C 2.980469 15.21875 3.042969 16.847656 2.996094 18.105469 C 2.945312 19.417969 3.980469 20.621094 5.367188 20.621094 L 19.636719 20.621094 C 21.027344 20.621094 22.058594 19.414062 22.007812 18.105469 C 21.964844 16.847656 22.023438 15.21875 22.433594 13.890625 C 22.851562 12.558594 23.550781 11.71875 24.695312 11.609375 L 24.695312 10.386719 C 23.554688 10.277344 22.851562 9.4375 22.4375 8.105469 Z M 13.03125 16.117188 L 8.78125 16.117188 L 8.78125 5.878906 L 13.007812 5.878906 C 14.886719 5.878906 16.121094 6.882812 16.121094 8.429688 C 16.121094 9.519531 15.289062 10.488281 14.230469 10.65625 L 14.230469 10.710938 C 15.671875 10.867188 16.640625 11.855469 16.640625 13.21875 C 16.640625 15.027344 15.28125 16.117188 13.03125 16.117188 Z M 12.59375 11.445312 L 10.421875 11.445312 L 10.421875 14.816406 L 12.691406 14.816406 C 14.175781 14.816406 14.960938 14.226562 14.960938 13.117188 C 14.960938 12.015625 14.152344 11.445312 12.59375 11.445312 Z M 12.59375 11.445312 "/>
</g>
</svg>
