<?xml version="1.0" encoding="UTF-8"?>
<svg xmlns="http://www.w3.org/2000/svg" xmlns:xlink="http://www.w3.org/1999/xlink" width="25px" height="25px" viewBox="0 0 25 25" version="1.1">
<g id="surface1">
<path style=" stroke:none;fill-rule:nonzero;fill:rgb(0%,0%,0%);fill-opacity:1;" d="M 8.363281 19.40625 C 8.363281 19.5 8.246094 19.578125 8.101562 19.578125 C 7.933594 19.59375 7.816406 19.515625 7.816406 19.40625 C 7.816406 19.304688 7.933594 19.226562 8.078125 19.226562 C 8.230469 19.214844 8.363281 19.292969 8.363281 19.40625 Z M 6.792969 19.183594 C 6.757812 19.28125 6.859375 19.394531 7.011719 19.421875 C 7.140625 19.472656 7.292969 19.421875 7.324219 19.324219 C 7.355469 19.226562 7.257812 19.117188 7.105469 19.070312 C 6.976562 19.039062 6.828125 19.085938 6.792969 19.183594 Z M 9.023438 19.101562 C 8.875 19.136719 8.773438 19.226562 8.789062 19.339844 C 8.804688 19.4375 8.9375 19.5 9.085938 19.46875 C 9.234375 19.433594 9.335938 19.339844 9.320312 19.242188 C 9.304688 19.148438 9.167969 19.085938 9.023438 19.101562 Z M 12.339844 0.390625 C 5.347656 0.390625 0 5.53125 0 12.304688 C 0 17.71875 3.519531 22.351562 8.542969 23.984375 C 9.1875 24.097656 9.414062 23.710938 9.414062 23.394531 C 9.414062 23.089844 9.398438 21.421875 9.398438 20.394531 C 9.398438 20.394531 5.871094 21.128906 5.132812 18.941406 C 5.132812 18.941406 4.554688 17.519531 3.730469 17.152344 C 3.730469 17.152344 2.574219 16.386719 3.808594 16.402344 C 3.808594 16.402344 5.066406 16.5 5.757812 17.660156 C 6.859375 19.546875 8.710938 19.003906 9.429688 18.679688 C 9.546875 17.898438 9.875 17.359375 10.238281 17.035156 C 7.417969 16.734375 4.578125 16.335938 4.578125 11.640625 C 4.578125 10.296875 4.960938 9.625 5.765625 8.765625 C 5.636719 8.445312 5.207031 7.136719 5.898438 5.449219 C 6.949219 5.132812 9.375 6.765625 9.375 6.765625 C 10.382812 6.492188 11.464844 6.351562 12.539062 6.351562 C 13.613281 6.351562 14.699219 6.492188 15.707031 6.765625 C 15.707031 6.765625 18.128906 5.125 19.183594 5.449219 C 19.875 7.144531 19.445312 8.445312 19.316406 8.765625 C 20.121094 9.628906 20.613281 10.300781 20.613281 11.640625 C 20.613281 16.351562 17.644531 16.726562 14.828125 17.035156 C 15.292969 17.421875 15.683594 18.152344 15.683594 19.300781 C 15.683594 20.945312 15.671875 22.984375 15.671875 23.382812 C 15.671875 23.703125 15.902344 24.085938 16.542969 23.976562 C 21.582031 22.351562 25 17.71875 25 12.304688 C 25 5.53125 19.328125 0.390625 12.339844 0.390625 Z M 4.898438 17.230469 C 4.832031 17.28125 4.847656 17.390625 4.933594 17.484375 C 5.015625 17.5625 5.132812 17.597656 5.195312 17.535156 C 5.261719 17.484375 5.246094 17.371094 5.160156 17.28125 C 5.082031 17.203125 4.964844 17.167969 4.898438 17.230469 Z M 4.355469 16.835938 C 4.320312 16.898438 4.371094 16.976562 4.472656 17.027344 C 4.550781 17.074219 4.652344 17.058594 4.6875 16.992188 C 4.722656 16.929688 4.671875 16.851562 4.570312 16.800781 C 4.472656 16.773438 4.390625 16.785156 4.355469 16.835938 Z M 5.988281 18.574219 C 5.90625 18.636719 5.9375 18.785156 6.054688 18.875 C 6.167969 18.988281 6.316406 19.003906 6.382812 18.925781 C 6.445312 18.863281 6.417969 18.714844 6.316406 18.625 C 6.203125 18.511719 6.054688 18.496094 5.988281 18.574219 Z M 5.414062 17.855469 C 5.332031 17.90625 5.332031 18.03125 5.414062 18.144531 C 5.492188 18.257812 5.628906 18.304688 5.695312 18.257812 C 5.777344 18.195312 5.777344 18.066406 5.695312 17.953125 C 5.625 17.84375 5.492188 17.792969 5.414062 17.855469 Z M 5.414062 17.855469 "/>
</g>
</svg>
