<?xml version="1.0" encoding="UTF-8"?>
<svg xmlns="http://www.w3.org/2000/svg" xmlns:xlink="http://www.w3.org/1999/xlink" width="25px" height="25px" viewBox="0 0 25 50" version="1.1">
<g id="surface1">
<path style=" stroke:none;fill-rule:nonzero;fill:rgb(0%,0%,0%);fill-opacity:1;" d="M 20.488281 38.195312 L 19.109375 40.597656 L 18.664062 48.429688 C 18.664062 49.296875 15.898438 50 12.5 50 C 9.101562 50 6.339844 49.296875 6.339844 48.429688 L 5.773438 40.671875 L 4.316406 38.195312 C 8.339844 39.882812 16.621094 39.824219 20.488281 38.195312 Z M 1.347656 13.457031 L 2.675781 25.710938 C 3.253906 23.757812 4.707031 21.125 6.582031 20.324219 C 7.195312 20.058594 7.824219 20.058594 8.40625 20.410156 C 8.917969 20.703125 9.34375 21.320312 9.394531 21.5625 C 9.511719 22.199219 9.199219 22.453125 8.953125 22.453125 C 8.664062 22.453125 8.4375 22.003906 8.289062 21.738281 C 7.890625 21.023438 7.285156 20.996094 6.640625 21.464844 C 5.96875 21.953125 5.382812 22.773438 4.96875 23.484375 C 4.472656 24.34375 4.054688 25.292969 3.796875 26.242188 C 3.652344 26.789062 3.515625 27.664062 3.738281 28.183594 C 3.835938 28.398438 3.984375 28.535156 4.21875 28.535156 C 4.707031 28.535156 5.421875 27.890625 5.761719 27.546875 C 6.203125 27.109375 6.765625 26.425781 6.984375 25.984375 L 7.492188 24.472656 C 7.742188 23.808594 8.457031 23.925781 8.457031 24.472656 C 8.457031 25.46875 8.09375 25.800781 7.480469 27.859375 C 6.914062 29.765625 6.738281 30.378906 6.738281 30.378906 C 6.671875 30.652344 6.40625 31.113281 6.125 31.113281 C 6.007812 31.113281 5.917969 31.074219 5.871094 30.996094 C 5.773438 30.859375 5.78125 30.476562 5.792969 30.378906 C 5.8125 30.066406 6.40625 28.210938 6.503906 27.917969 C 6.308594 28.132812 6.105469 28.347656 5.878906 28.5625 C 5.351562 29.0625 4.503906 29.71875 3.78125 29.71875 C 3.449219 29.71875 3.234375 29.628906 3.027344 29.484375 L 3.769531 37.257812 C 3.964844 37.742188 7.597656 38.925781 12.382812 38.925781 C 17.179688 38.925781 20.8125 37.734375 20.996094 37.257812 L 22.0625 28.015625 C 21.503906 28.523438 20.859375 29.148438 20.148438 29.460938 C 19.621094 29.6875 18.449219 29.835938 18.449219 28.90625 C 18.449219 28.398438 19.335938 27.460938 19.855469 26.804688 C 19.992188 26.640625 20.3125 26.230469 20.3125 26.015625 C 20.3125 25.734375 19.726562 25.800781 19.171875 26.257812 C 18.859375 26.523438 18.566406 26.875 18.320312 27.207031 C 17.902344 27.792969 17.675781 28.300781 17.492188 28.71875 C 16.886719 30.105469 17.089844 29.5625 16.601562 30.867188 C 16.113281 32.167969 16.191406 32.023438 16.09375 32.234375 C 16.007812 32.421875 15.878906 32.578125 15.703125 32.675781 C 15.519531 32.773438 15.265625 32.761719 15.109375 32.644531 C 15.019531 32.585938 14.980469 32.460938 14.980469 32.285156 C 14.980469 32.195312 14.992188 32.109375 15.011719 32.023438 C 15.15625 31.425781 15.773438 30.253906 16.476562 28.671875 C 16.632812 28.308594 16.574219 28.417969 16.554688 28.445312 C 15.949219 29.03125 15.488281 29.316406 15.148438 29.472656 C 14.582031 29.726562 13.878906 29.726562 13.730469 29.070312 C 13.722656 29.03125 13.722656 28.992188 13.710938 28.953125 C 12.558594 29.851562 11.339844 30.097656 11.757812 28.164062 C 11.308594 28.964844 10.527344 29.617188 9.570312 29.617188 C 9.171875 29.617188 8.878906 29.480469 8.730469 29.121094 C 8.507812 28.582031 8.859375 27.664062 9.179688 26.796875 C 9.347656 26.355469 9.570312 25.828125 9.875 25.214844 C 10.03125 24.882812 10.285156 24.6875 10.617188 24.773438 C 10.675781 24.792969 10.722656 24.8125 10.773438 24.84375 C 11.027344 25.019531 10.929688 25.28125 10.800781 25.546875 C 10.429688 26.277344 10.109375 26.816406 9.894531 27.578125 C 9.804688 27.898438 9.699219 28.457031 10.039062 28.457031 C 10.273438 28.457031 10.5 28.378906 10.714844 28.222656 C 11.164062 27.890625 11.523438 27.390625 11.796875 26.902344 C 11.992188 26.550781 12.226562 26.09375 12.34375 25.703125 C 12.394531 25.535156 12.453125 25.378906 12.519531 25.234375 C 12.628906 24.988281 12.773438 24.734375 13.027344 24.734375 C 13.15625 24.734375 13.261719 24.785156 13.339844 24.882812 C 13.507812 25.097656 13.46875 25.320312 13.378906 25.554688 C 13.183594 26.101562 12.921875 26.589844 12.707031 27.1875 C 12.578125 27.527344 12.441406 27.96875 12.441406 28.328125 C 12.441406 28.660156 12.804688 28.582031 13.105469 28.445312 C 13.339844 28.339844 13.574219 28.171875 13.769531 28.007812 C 13.886719 27.527344 13.859375 27.636719 16.347656 21.347656 C 16.476562 21.023438 16.710938 20.886719 16.945312 20.886719 C 17.0625 20.886719 17.160156 20.925781 17.257812 20.996094 C 17.421875 21.121094 17.421875 21.394531 17.355469 21.601562 C 17.285156 21.785156 17.296875 21.726562 16.914062 22.625 C 16.40625 23.808594 16.074219 24.65625 15.625 25.742188 C 15.441406 26.191406 14.875 27.585938 14.777344 27.917969 C 14.71875 28.132812 14.648438 28.484375 14.875 28.484375 C 15.402344 28.484375 16.757812 27.207031 17.128906 26.824219 C 17.148438 26.796875 17.179688 26.785156 17.21875 26.765625 C 17.277344 26.582031 17.335938 26.40625 17.382812 26.230469 C 17.519531 25.859375 17.648438 25.429688 17.902344 25.125 C 17.980469 25.027344 18.066406 24.96875 18.164062 24.96875 C 18.4375 24.96875 18.574219 25.085938 18.574219 25.359375 C 18.574219 25.46875 18.507812 25.859375 18.46875 25.964844 C 18.605469 25.820312 18.75 25.671875 18.90625 25.527344 C 20.371094 24.167969 21.417969 24.863281 21.417969 25.546875 C 21.417969 26.269531 20.546875 27.273438 20.070312 27.832031 C 19.914062 28.015625 19.589844 28.359375 19.582031 28.457031 C 19.582031 28.582031 19.667969 28.632812 19.796875 28.632812 C 19.992188 28.632812 20.421875 28.289062 20.578125 28.171875 C 21.0625 27.792969 21.730469 27.207031 22.195312 26.796875 L 23.644531 13.4375 C 20.664062 15.105469 4.347656 15.117188 1.347656 13.457031 Z M 23.78125 12.628906 C 23.78125 14.679688 1.203125 14.679688 1.203125 12.628906 C 1.203125 11.769531 6.261719 11.074219 12.492188 11.074219 C 13.367188 11.074219 14.230469 11.085938 15.058594 11.113281 L 16.289062 6.359375 L 22.273438 0.0585938 C 22.414062 -0.078125 22.84375 0.0390625 23.242188 0.398438 C 23.640625 0.761719 23.886719 1.171875 23.757812 1.308594 L 23.75 1.320312 L 18.15625 7.226562 L 17.179688 11.203125 C 21.074219 11.453125 23.78125 11.992188 23.78125 12.628906 Z M 17 13.078125 C 17 13 16.914062 12.929688 16.757812 12.871094 L 16.738281 12.949219 C 16.738281 13.078125 16.25 13.183594 15.65625 13.183594 C 15.058594 13.183594 14.570312 13.078125 14.570312 12.949219 C 14.570312 12.941406 14.570312 12.929688 14.582031 12.921875 L 14.601562 12.851562 C 14.421875 12.910156 14.304688 12.988281 14.304688 13.078125 C 14.304688 13.28125 14.910156 13.4375 15.644531 13.4375 C 16.394531 13.449219 17 13.28125 17 13.078125 Z M 17 13.078125 "/>
</g>
</svg>
