<?xml version="1.0" encoding="UTF-8"?>
<svg xmlns="http://www.w3.org/2000/svg" xmlns:xlink="http://www.w3.org/1999/xlink" width="25px" height="25px" viewBox="0 0 25 28" version="1.1">
<g id="surface1">
<path style=" stroke:none;fill-rule:nonzero;fill:rgb(0%,0%,0%);fill-opacity:1;" d="M 12.503906 7.710938 C 8.957031 7.710938 6.09375 10.515625 6.09375 13.996094 C 6.09375 17.472656 8.957031 20.277344 12.503906 20.277344 C 16.054688 20.277344 18.917969 17.472656 18.917969 13.996094 C 18.917969 10.515625 16.054688 7.710938 12.503906 7.710938 Z M 12.503906 18.078125 C 10.210938 18.078125 8.335938 16.246094 8.335938 13.996094 C 8.335938 11.742188 10.207031 9.910156 12.503906 9.910156 C 14.804688 9.910156 16.675781 11.742188 16.675781 13.996094 C 16.675781 16.246094 14.800781 18.078125 12.503906 18.078125 Z M 20.675781 7.453125 C 20.675781 8.269531 20.003906 8.917969 19.179688 8.917969 C 18.347656 8.917969 17.683594 8.261719 17.683594 7.453125 C 17.683594 6.644531 18.355469 5.988281 19.179688 5.988281 C 20.003906 5.988281 20.675781 6.644531 20.675781 7.453125 Z M 24.921875 8.941406 C 24.828125 6.976562 24.371094 5.238281 22.902344 3.804688 C 21.441406 2.375 19.664062 1.925781 17.660156 1.828125 C 15.597656 1.710938 9.410156 1.710938 7.34375 1.828125 C 5.347656 1.917969 3.570312 2.367188 2.105469 3.800781 C 0.636719 5.234375 0.183594 6.972656 0.0820312 8.9375 C -0.0351562 10.960938 -0.0351562 17.023438 0.0820312 19.046875 C 0.179688 21.011719 0.636719 22.75 2.105469 24.183594 C 3.570312 25.617188 5.339844 26.0625 7.34375 26.164062 C 9.410156 26.277344 15.597656 26.277344 17.660156 26.164062 C 19.664062 26.070312 21.441406 25.621094 22.902344 24.183594 C 24.363281 22.75 24.820312 21.011719 24.921875 19.046875 C 25.039062 17.023438 25.039062 10.964844 24.921875 8.941406 Z M 22.253906 21.21875 C 21.820312 22.289062 20.976562 23.117188 19.878906 23.546875 C 18.230469 24.1875 14.324219 24.039062 12.503906 24.039062 C 10.6875 24.039062 6.773438 24.183594 5.132812 23.546875 C 4.039062 23.121094 3.199219 22.296875 2.757812 21.21875 C 2.105469 19.605469 2.253906 15.777344 2.253906 13.996094 C 2.253906 12.210938 2.109375 8.378906 2.757812 6.769531 C 3.191406 5.699219 4.035156 4.871094 5.132812 4.441406 C 6.78125 3.800781 10.6875 3.949219 12.503906 3.949219 C 14.324219 3.949219 18.238281 3.804688 19.878906 4.441406 C 20.972656 4.867188 21.8125 5.691406 22.253906 6.769531 C 22.90625 8.382812 22.757812 12.210938 22.757812 13.996094 C 22.757812 15.777344 22.90625 19.609375 22.253906 21.21875 Z M 22.253906 21.21875 "/>
</g>
</svg>
