<?xml version="1.0" encoding="UTF-8"?>
<svg xmlns="http://www.w3.org/2000/svg" xmlns:xlink="http://www.w3.org/1999/xlink" width="25px" height="25px" viewBox="0 0 25 25" version="1.1">
<g id="surface1">
<path style=" stroke:none;fill-rule:nonzero;fill:rgb(26.666667%,26.666667%,26.666667%);fill-opacity:1;" d="M 12.679688 18.785156 C 12.5625 18.761719 12.449219 18.722656 12.335938 18.691406 C 12.308594 18.679688 12.277344 18.671875 12.25 18.664062 C 12.140625 18.628906 12.027344 18.59375 11.917969 18.554688 C 11.902344 18.550781 11.886719 18.542969 11.875 18.539062 C 11.773438 18.503906 11.675781 18.46875 11.582031 18.429688 C 11.554688 18.417969 11.527344 18.410156 11.5 18.398438 C 11.390625 18.355469 11.285156 18.3125 11.183594 18.265625 C 11.160156 18.257812 11.140625 18.25 11.117188 18.238281 C 11.027344 18.199219 10.941406 18.15625 10.851562 18.113281 C 10.828125 18.101562 10.800781 18.089844 10.773438 18.078125 C 10.707031 18.042969 10.636719 18.007812 10.570312 17.972656 C 10.523438 17.949219 10.476562 17.925781 10.429688 17.902344 C 10.347656 17.855469 10.265625 17.808594 10.183594 17.761719 C 10.15625 17.746094 10.128906 17.734375 10.101562 17.714844 C 9.992188 17.652344 9.882812 17.585938 9.777344 17.519531 C 9.75 17.5 9.71875 17.480469 9.691406 17.460938 C 9.613281 17.414062 9.539062 17.363281 9.460938 17.308594 C 9.4375 17.292969 9.414062 17.273438 9.390625 17.257812 C 9.316406 17.207031 9.242188 17.15625 9.171875 17.101562 C 9.140625 17.078125 9.109375 17.054688 9.078125 17.027344 C 9.011719 16.980469 8.945312 16.929688 8.882812 16.875 C 8.851562 16.851562 8.824219 16.828125 8.792969 16.804688 C 8.710938 16.738281 8.628906 16.671875 8.550781 16.601562 C 8.542969 16.59375 8.53125 16.585938 8.523438 16.578125 C 8.4375 16.503906 8.351562 16.425781 8.265625 16.34375 C 8.242188 16.320312 8.21875 16.300781 8.195312 16.277344 C 8.132812 16.21875 8.070312 16.15625 8.011719 16.097656 C 7.988281 16.070312 7.964844 16.046875 7.941406 16.023438 C 7.863281 15.945312 7.789062 15.867188 7.714844 15.785156 C 7.710938 15.78125 7.707031 15.777344 7.703125 15.773438 C 7.625 15.6875 7.550781 15.601562 7.472656 15.511719 C 7.453125 15.488281 7.433594 15.464844 7.414062 15.441406 C 7.359375 15.375 7.304688 15.304688 7.25 15.238281 C 7.230469 15.214844 7.207031 15.1875 7.1875 15.164062 C 7.125 15.078125 7.0625 14.996094 7 14.910156 C 5.28125 12.570312 4.667969 9.339844 6.039062 6.6875 L 4.824219 8.230469 C 3.265625 10.46875 3.457031 13.382812 4.648438 15.761719 C 4.675781 15.820312 4.707031 15.875 4.734375 15.929688 C 4.753906 15.964844 4.773438 16.003906 4.792969 16.039062 C 4.800781 16.058594 4.816406 16.078125 4.824219 16.101562 C 4.847656 16.136719 4.867188 16.175781 4.886719 16.210938 C 4.925781 16.277344 4.960938 16.339844 5 16.40625 C 5.023438 16.441406 5.042969 16.476562 5.066406 16.511719 C 5.109375 16.582031 5.152344 16.648438 5.199219 16.71875 C 5.214844 16.746094 5.234375 16.777344 5.253906 16.804688 C 5.316406 16.898438 5.378906 16.988281 5.445312 17.082031 C 5.445312 17.082031 5.449219 17.085938 5.449219 17.085938 C 5.460938 17.101562 5.472656 17.117188 5.480469 17.132812 C 5.539062 17.210938 5.597656 17.285156 5.65625 17.363281 C 5.679688 17.390625 5.699219 17.417969 5.722656 17.445312 C 5.773438 17.511719 5.828125 17.578125 5.882812 17.644531 C 5.902344 17.667969 5.921875 17.691406 5.945312 17.71875 C 6.019531 17.804688 6.09375 17.890625 6.167969 17.972656 C 6.171875 17.976562 6.171875 17.976562 6.171875 17.976562 C 6.175781 17.980469 6.179688 17.984375 6.183594 17.988281 C 6.257812 18.070312 6.332031 18.148438 6.410156 18.226562 C 6.433594 18.253906 6.457031 18.277344 6.480469 18.300781 C 6.542969 18.359375 6.601562 18.421875 6.664062 18.480469 C 6.6875 18.503906 6.714844 18.527344 6.738281 18.550781 C 6.820312 18.628906 6.902344 18.703125 6.988281 18.777344 C 6.988281 18.777344 6.988281 18.78125 6.992188 18.78125 C 7.003906 18.792969 7.019531 18.804688 7.035156 18.816406 C 7.109375 18.882812 7.183594 18.945312 7.261719 19.007812 C 7.292969 19.035156 7.324219 19.058594 7.355469 19.082031 C 7.417969 19.132812 7.480469 19.183594 7.542969 19.230469 C 7.578125 19.257812 7.609375 19.28125 7.644531 19.308594 C 7.714844 19.359375 7.785156 19.410156 7.855469 19.460938 C 7.882812 19.476562 7.90625 19.496094 7.933594 19.515625 C 7.941406 19.519531 7.949219 19.523438 7.953125 19.527344 C 8.023438 19.574219 8.089844 19.621094 8.160156 19.664062 C 8.191406 19.683594 8.21875 19.703125 8.25 19.722656 C 8.355469 19.792969 8.460938 19.859375 8.570312 19.921875 C 8.601562 19.9375 8.628906 19.957031 8.660156 19.972656 C 8.738281 20.019531 8.820312 20.0625 8.902344 20.109375 C 8.945312 20.132812 8.992188 20.152344 9.035156 20.175781 C 9.09375 20.207031 9.148438 20.238281 9.207031 20.265625 C 9.222656 20.273438 9.234375 20.28125 9.246094 20.285156 C 9.269531 20.296875 9.292969 20.308594 9.320312 20.320312 C 9.410156 20.363281 9.5 20.40625 9.59375 20.449219 C 9.613281 20.457031 9.632812 20.464844 9.652344 20.472656 C 9.757812 20.519531 9.863281 20.5625 9.96875 20.605469 C 9.996094 20.617188 10.023438 20.625 10.046875 20.636719 C 10.148438 20.675781 10.25 20.714844 10.351562 20.75 C 10.363281 20.753906 10.375 20.757812 10.386719 20.761719 C 10.5 20.800781 10.613281 20.835938 10.722656 20.871094 C 10.75 20.878906 10.777344 20.886719 10.804688 20.894531 C 10.921875 20.929688 11.035156 20.972656 11.152344 20.992188 C 18.6875 22.367188 20.875 16.464844 20.875 16.464844 C 19.039062 18.859375 15.773438 19.492188 12.683594 18.789062 Z M 9.96875 12.679688 C 10.136719 12.921875 10.324219 13.210938 10.546875 13.40625 C 10.628906 13.492188 10.714844 13.582031 10.800781 13.667969 C 10.820312 13.691406 10.84375 13.710938 10.867188 13.734375 C 10.949219 13.816406 11.035156 13.894531 11.125 13.972656 C 11.128906 13.976562 11.132812 13.980469 11.136719 13.980469 C 11.136719 13.984375 11.136719 13.984375 11.136719 13.984375 C 11.234375 14.070312 11.335938 14.152344 11.4375 14.234375 C 11.460938 14.25 11.484375 14.269531 11.507812 14.289062 C 11.609375 14.367188 11.714844 14.445312 11.824219 14.519531 C 11.828125 14.519531 11.828125 14.523438 11.832031 14.523438 C 11.878906 14.558594 11.929688 14.589844 11.976562 14.621094 C 12 14.636719 12.023438 14.652344 12.046875 14.664062 C 12.121094 14.714844 12.199219 14.761719 12.277344 14.808594 C 12.289062 14.816406 12.300781 14.820312 12.3125 14.828125 C 12.378906 14.867188 12.449219 14.90625 12.519531 14.941406 C 12.542969 14.957031 12.566406 14.96875 12.59375 14.980469 C 12.640625 15.007812 12.6875 15.03125 12.738281 15.054688 C 12.742188 15.058594 12.75 15.0625 12.757812 15.066406 C 12.859375 15.113281 12.957031 15.160156 13.058594 15.207031 C 13.082031 15.214844 13.105469 15.222656 13.125 15.234375 C 13.207031 15.269531 13.289062 15.300781 13.375 15.335938 C 13.410156 15.347656 13.445312 15.359375 13.480469 15.375 C 13.554688 15.402344 13.628906 15.425781 13.707031 15.453125 C 13.742188 15.464844 13.773438 15.472656 13.808594 15.484375 C 13.917969 15.519531 14.023438 15.5625 14.136719 15.582031 C 19.953125 16.542969 21.296875 12.066406 21.296875 12.066406 C 20.085938 13.808594 17.742188 14.640625 15.238281 13.992188 C 15.128906 13.960938 15.019531 13.929688 14.910156 13.894531 C 14.875 13.886719 14.84375 13.875 14.8125 13.863281 C 14.734375 13.839844 14.65625 13.8125 14.582031 13.785156 C 14.546875 13.769531 14.511719 13.757812 14.476562 13.746094 C 14.394531 13.714844 14.308594 13.679688 14.230469 13.644531 C 14.207031 13.636719 14.183594 13.625 14.160156 13.617188 C 14.058594 13.574219 13.957031 13.527344 13.859375 13.476562 C 13.804688 13.453125 13.757812 13.425781 13.707031 13.398438 C 13.675781 13.382812 13.648438 13.371094 13.617188 13.355469 C 13.554688 13.320312 13.488281 13.28125 13.425781 13.246094 C 13.410156 13.238281 13.394531 13.226562 13.378906 13.21875 C 13.300781 13.171875 13.222656 13.125 13.144531 13.078125 C 13.121094 13.0625 13.097656 13.046875 13.074219 13.03125 C 13.023438 12.996094 12.972656 12.964844 12.925781 12.929688 C 12.816406 12.855469 12.714844 12.777344 12.609375 12.699219 C 12.585938 12.683594 12.5625 12.664062 12.539062 12.644531 C 11.445312 11.78125 10.578125 10.597656 10.164062 9.257812 C 9.730469 7.871094 9.824219 6.308594 10.574219 5.042969 L 9.652344 6.34375 C 8.527344 7.964844 8.589844 10.136719 9.46875 11.851562 C 9.613281 12.136719 9.78125 12.417969 9.964844 12.683594 Z M 16.097656 10.675781 C 16.144531 10.691406 16.195312 10.707031 16.242188 10.726562 C 16.265625 10.730469 16.285156 10.738281 16.308594 10.746094 C 16.375 10.765625 16.445312 10.792969 16.515625 10.804688 C 19.726562 11.425781 20.597656 9.15625 20.828125 8.824219 C 20.066406 9.921875 18.785156 10.183594 17.210938 9.804688 C 17.085938 9.773438 16.949219 9.726562 16.828125 9.683594 C 16.675781 9.628906 16.523438 9.566406 16.375 9.496094 C 16.097656 9.363281 15.832031 9.199219 15.582031 9.015625 C 14.175781 7.945312 13.300781 5.90625 14.21875 4.246094 L 13.722656 4.933594 C 13.058594 5.910156 12.992188 7.125 13.453125 8.203125 C 13.9375 9.347656 14.933594 10.246094 16.097656 10.675781 Z M 16.097656 10.675781 "/>
</g>
</svg>
