<?xml version="1.0" encoding="UTF-8"?>
<svg xmlns="http://www.w3.org/2000/svg" xmlns:xlink="http://www.w3.org/1999/xlink" width="25px" height="25px" viewBox="0 0 25 20" version="1.1">
<g id="surface1">
<path style=" stroke:none;fill-rule:nonzero;fill:rgb(0%,0%,0%);fill-opacity:1;" d="M 11.789062 14.800781 C 11.777344 14.824219 11.765625 14.84375 11.789062 14.800781 Z M 21.523438 11.402344 C 20.738281 11.402344 19.960938 11.582031 19.257812 11.929688 C 19.027344 11.464844 18.789062 11.058594 18.75 10.753906 C 18.703125 10.398438 18.652344 10.1875 18.707031 9.765625 C 18.761719 9.34375 19.007812 8.746094 19.003906 8.703125 C 19 8.660156 18.949219 8.445312 18.445312 8.441406 C 17.941406 8.4375 17.507812 8.539062 17.457031 8.671875 C 17.367188 8.914062 17.296875 9.164062 17.25 9.417969 C 17.160156 9.875 16.242188 11.507812 15.722656 12.359375 C 15.550781 12.027344 15.40625 11.734375 15.375 11.5 C 15.328125 11.144531 15.277344 10.933594 15.332031 10.511719 C 15.386719 10.089844 15.632812 9.492188 15.628906 9.449219 C 15.625 9.40625 15.574219 9.191406 15.070312 9.1875 C 14.566406 9.183594 14.132812 9.285156 14.082031 9.417969 C 14.03125 9.550781 13.976562 9.863281 13.875 10.164062 C 13.773438 10.464844 12.550781 13.183594 12.230469 13.890625 C 12.066406 14.25 11.925781 14.539062 11.824219 14.734375 C 11.808594 14.765625 11.796875 14.785156 11.789062 14.800781 C 11.800781 14.78125 11.808594 14.761719 11.808594 14.769531 C 11.722656 14.9375 11.671875 15.03125 11.671875 15.03125 L 11.671875 15.035156 C 11.605469 15.160156 11.53125 15.273438 11.496094 15.273438 C 11.472656 15.273438 11.421875 14.945312 11.507812 14.496094 C 11.691406 13.550781 12.125 12.082031 12.121094 12.03125 C 12.117188 12.003906 12.203125 11.75 11.835938 11.613281 C 11.480469 11.484375 11.351562 11.699219 11.320312 11.699219 C 11.289062 11.699219 11.265625 11.777344 11.265625 11.777344 C 11.265625 11.777344 11.660156 10.121094 10.507812 10.121094 C 9.789062 10.121094 8.789062 10.910156 8.300781 11.625 C 7.992188 11.792969 7.324219 12.15625 6.621094 12.542969 C 6.351562 12.691406 6.074219 12.84375 5.8125 12.988281 C 5.792969 12.96875 5.777344 12.949219 5.757812 12.929688 C 4.359375 11.4375 1.777344 10.382812 1.886719 8.378906 C 1.925781 7.648438 2.179688 5.730469 6.851562 3.402344 C 10.679688 1.496094 13.738281 2.019531 14.265625 3.183594 C 15.023438 4.84375 12.628906 7.933594 8.652344 8.378906 C 7.136719 8.546875 6.34375 7.960938 6.144531 7.742188 C 5.9375 7.511719 5.90625 7.5 5.828125 7.542969 C 5.699219 7.613281 5.78125 7.816406 5.828125 7.9375 C 5.945312 8.246094 6.433594 8.792969 7.261719 9.066406 C 7.992188 9.304688 9.769531 9.4375 11.917969 8.605469 C 14.332031 7.675781 16.210938 5.085938 15.660156 2.917969 C 15.097656 0.714844 11.445312 -0.0078125 7.992188 1.21875 C 5.933594 1.949219 3.707031 3.097656 2.105469 4.59375 C 0.203125 6.375 -0.101562 7.925781 0.0234375 8.574219 C 0.46875 10.875 3.640625 12.375 4.910156 13.484375 C 4.847656 13.519531 4.789062 13.550781 4.734375 13.582031 C 4.097656 13.898438 1.679688 15.164062 1.074219 16.5 C 0.390625 18.015625 1.1875 19.101562 1.710938 19.25 C 3.34375 19.703125 5.015625 18.886719 5.914062 17.546875 C 6.8125 16.207031 6.703125 14.457031 6.289062 13.660156 C 6.285156 13.648438 6.277344 13.640625 6.273438 13.628906 C 6.4375 13.53125 6.605469 13.433594 6.773438 13.335938 C 7.097656 13.144531 7.414062 12.96875 7.691406 12.816406 C 7.535156 13.238281 7.421875 13.746094 7.363281 14.480469 C 7.292969 15.339844 7.648438 16.453125 8.109375 16.890625 C 8.3125 17.082031 8.558594 17.085938 8.710938 17.085938 C 9.25 17.085938 9.492188 16.640625 9.757812 16.109375 C 10.089844 15.460938 10.382812 14.707031 10.382812 14.707031 C 10.382812 14.707031 10.015625 16.746094 11.023438 16.746094 C 11.386719 16.746094 11.753906 16.273438 11.921875 16.03125 L 11.921875 16.035156 C 11.921875 16.035156 11.925781 16.019531 11.945312 15.988281 C 11.984375 15.929688 12.003906 15.894531 12.003906 15.894531 L 12.003906 15.882812 C 12.15625 15.628906 12.476562 15.046875 12.964844 14.085938 C 13.597656 12.84375 14.203125 11.292969 14.203125 11.292969 C 14.261719 11.632812 14.34375 11.972656 14.445312 12.300781 C 14.554688 12.671875 14.785156 13.078125 14.96875 13.472656 C 14.820312 13.675781 14.730469 13.792969 14.730469 13.792969 C 14.730469 13.796875 14.734375 13.800781 14.734375 13.800781 C 14.617188 13.957031 14.484375 14.125 14.347656 14.289062 C 13.847656 14.882812 13.253906 15.5625 13.175781 15.757812 C 13.082031 15.988281 13.105469 16.160156 13.285156 16.292969 C 13.417969 16.394531 13.652344 16.410156 13.898438 16.390625 C 14.347656 16.359375 14.664062 16.25 14.816406 16.179688 C 15.097656 16.078125 15.363281 15.941406 15.605469 15.765625 C 16.09375 15.40625 16.390625 14.890625 16.363281 14.210938 C 16.347656 13.835938 16.226562 13.460938 16.078125 13.109375 C 16.121094 13.046875 16.167969 12.980469 16.210938 12.914062 C 16.984375 11.785156 17.582031 10.546875 17.582031 10.546875 C 17.640625 10.886719 17.722656 11.222656 17.824219 11.554688 C 17.917969 11.871094 18.101562 12.21875 18.269531 12.558594 C 17.542969 13.148438 17.09375 13.832031 16.9375 14.28125 C 16.648438 15.113281 16.875 15.488281 17.300781 15.574219 C 17.492188 15.613281 17.765625 15.523438 17.96875 15.4375 C 18.269531 15.335938 18.554688 15.191406 18.8125 15.003906 C 19.300781 14.644531 19.773438 14.140625 19.742188 13.457031 C 19.730469 13.148438 19.644531 12.839844 19.53125 12.542969 C 20.144531 12.285156 20.941406 12.144531 21.957031 12.261719 C 24.132812 12.515625 24.558594 13.875 24.476562 14.441406 C 24.390625 15.007812 23.9375 15.324219 23.78125 15.417969 C 23.628906 15.511719 23.585938 15.546875 23.597656 15.617188 C 23.617188 15.71875 23.6875 15.714844 23.816406 15.691406 C 23.996094 15.660156 24.953125 15.230469 24.996094 14.179688 C 25.058594 12.851562 23.78125 11.390625 21.519531 11.402344 Z M 4.757812 17.054688 C 4.039062 17.839844 3.03125 18.136719 2.597656 17.886719 C 2.132812 17.617188 2.316406 16.460938 3.203125 15.625 C 3.742188 15.117188 4.4375 14.648438 4.898438 14.359375 C 5.003906 14.296875 5.15625 14.203125 5.34375 14.089844 C 5.375 14.070312 5.390625 14.0625 5.390625 14.0625 C 5.425781 14.039062 5.464844 14.019531 5.503906 13.996094 C 5.828125 15.183594 5.515625 16.230469 4.757812 17.054688 Z M 10.007812 13.484375 C 9.757812 14.097656 9.230469 15.660156 8.910156 15.578125 C 8.636719 15.507812 8.46875 14.316406 8.855469 13.144531 C 9.050781 12.554688 9.464844 11.851562 9.710938 11.578125 C 10.105469 11.136719 10.539062 10.996094 10.640625 11.171875 C 10.773438 11.402344 10.164062 13.101562 10.007812 13.484375 Z M 14.34375 15.554688 C 14.238281 15.609375 14.140625 15.644531 14.09375 15.617188 C 14.058594 15.597656 14.136719 15.523438 14.136719 15.523438 C 14.136719 15.523438 14.679688 14.941406 14.894531 14.675781 C 15.019531 14.519531 15.164062 14.335938 15.316406 14.132812 C 15.316406 14.152344 15.320312 14.171875 15.320312 14.195312 C 15.316406 14.894531 14.644531 15.367188 14.339844 15.554688 Z M 17.683594 14.792969 C 17.605469 14.738281 17.617188 14.554688 17.878906 13.984375 C 17.980469 13.761719 18.214844 13.386719 18.621094 13.027344 C 18.667969 13.164062 18.691406 13.304688 18.695312 13.449219 C 18.691406 14.328125 18.0625 14.65625 17.683594 14.792969 Z M 17.683594 14.792969 "/>
</g>
</svg>
