<?xml version="1.0" encoding="UTF-8"?>
<svg xmlns="http://www.w3.org/2000/svg" xmlns:xlink="http://www.w3.org/1999/xlink" width="25px" height="25px" viewBox="0 0 25 25" version="1.1">
<g id="surface1">
<path style=" stroke:none;fill-rule:nonzero;fill:rgb(0%,0%,0%);fill-opacity:1;" d="M 12.5 0.390625 C 5.597656 0.390625 0 5.8125 0 12.5 C 0 19.1875 5.597656 24.609375 12.5 24.609375 C 19.402344 24.609375 25 19.1875 25 12.5 C 25 5.8125 19.402344 0.390625 12.5 0.390625 Z M 18.292969 8.625 C 18.105469 10.539062 17.292969 15.1875 16.878906 17.332031 C 16.703125 18.238281 16.355469 18.542969 16.023438 18.574219 C 15.296875 18.636719 14.746094 18.109375 14.042969 17.664062 C 12.941406 16.964844 12.320312 16.527344 11.253906 15.847656 C 10.019531 15.058594 10.820312 14.625 11.523438 13.917969 C 11.707031 13.734375 14.90625 10.914062 14.96875 10.660156 C 14.976562 10.628906 14.980469 10.507812 14.910156 10.445312 C 14.835938 10.382812 14.726562 10.402344 14.648438 10.421875 C 14.539062 10.445312 12.78125 11.570312 9.378906 13.796875 C 8.878906 14.128906 8.425781 14.289062 8.023438 14.28125 C 7.574219 14.273438 6.71875 14.039062 6.078125 13.835938 C 5.296875 13.589844 4.675781 13.460938 4.726562 13.039062 C 4.757812 12.824219 5.066406 12.601562 5.65625 12.371094 C 9.300781 10.835938 11.730469 9.820312 12.949219 9.328125 C 16.417969 7.929688 17.140625 7.6875 17.609375 7.679688 C 17.714844 7.679688 17.945312 7.703125 18.09375 7.820312 C 18.195312 7.90625 18.257812 8.023438 18.273438 8.148438 C 18.296875 8.308594 18.304688 8.464844 18.292969 8.625 Z M 18.292969 8.625 "/>
</g>
</svg>
