<?xml version="1.0" encoding="utf-8"?>
<!-- Generator: Adobe Illustrator 25.0.0, SVG Export Plug-In . SVG Version: 6.00 Build 0)  -->
<svg version="1.1" id="Слой_1" xmlns="http://www.w3.org/2000/svg" xmlns:xlink="http://www.w3.org/1999/xlink" x="0px" y="0px"
	 viewBox="0 0 512 512" style="enable-background:new 0 0 512 512;" xml:space="preserve">
<style type="text/css">
	.st0{fill:#567599;}
	.st1{fill:#FFFFFF;}
</style>
<rect x="-10" y="-10" class="st0" width="528" height="529"/>
<g>
	<path class="st1" d="M135.7,392c-18.8,0-35.2-4.2-49.3-12.5c-14.1-8.3-25-20-32.8-35.1c-7.8-15.1-11.7-32.7-11.7-52.8v-73.9
		c0-20.3,3.9-37.9,11.7-53c7.8-15.1,18.7-26.8,32.8-35.1s30.5-12.5,49.3-12.5c15.6,0,29.8,3.3,42.7,10c12.9,6.7,23.7,16,32.4,28
		c8.7,12,14.6,26,17.7,42.1h-38.7c-2.3-8.6-6.3-16.2-11.8-22.7c-5.5-6.5-12-11.5-19.4-15.1c-7.4-3.6-15.1-5.4-23-5.4
		c-16.6,0-29.9,5.8-39.9,17.5c-10.1,11.7-15.1,27.1-15.1,46.2v73.9c0,19.1,5,34.5,15.1,46.1c10.1,11.6,23.4,17.4,39.9,17.4
		c11.7,0,22.8-3.7,33.2-11.1s17.4-18.1,20.9-32.1h38.7c-3.1,16.1-9,30.1-17.8,42.1c-8.8,12-19.6,21.3-32.4,28
		C165.5,388.7,151.3,392,135.7,392z"/>
	<path class="st1" d="M342.3,389.2l-87.8-269.4h41.1L360.3,331l64.7-211.2h41.1l-87.8,269.4H342.3z"/>
</g>
</svg>
