<?xml version="1.0" standalone="no"?>
<!DOCTYPE svg PUBLIC "-//W3C//DTD SVG 20010904//EN"
 "http://www.w3.org/TR/2001/REC-SVG-20010904/DTD/svg10.dtd">
<svg version="1.0" xmlns="http://www.w3.org/2000/svg"
 width="700.000000pt" height="700.000000pt" viewBox="0 0 700.000000 700.000000"
 preserveAspectRatio="xMidYMid meet">
<metadata>
Created by potrace 1.14, written by Peter Selinger 2001-2017
</metadata>
<g transform="translate(0.000000,700.000000) scale(0.100000,-0.100000)"
fill="#000000" stroke="none">
<path d="M0 3500 l0 -3500 3500 0 3500 0 0 3500 0 3500 -3500 0 -3500 0 0
-3500z m2015 1889 c149 -18 270 -54 400 -118 254 -126 441 -310 569 -562 53
-105 119 -288 132 -368 l7 -41 -262 2 -262 3 -28 72 c-79 201 -218 353 -405
443 -112 53 -191 70 -323 70 -213 0 -354 -57 -498 -204 -103 -105 -158 -198
-199 -337 -44 -152 -48 -238 -43 -894 3 -510 7 -621 20 -680 60 -264 191 -449
391 -551 196 -101 461 -101 670 0 189 92 315 235 386 435 l26 76 263 3 263 2
-7 -36 c-27 -144 -101 -333 -182 -461 -255 -408 -675 -625 -1156 -599 -678 36
-1130 493 -1196 1206 -14 149 -14 1177 0 1335 23 268 95 486 227 690 60 92
227 259 322 320 249 162 570 232 885 194z m2469 -1471 c242 -791 441 -1436
443 -1435 1 2 192 622 423 1378 231 755 430 1402 441 1437 l21 62 279 0 c153
0 279 -1 279 -3 0 -1 -269 -828 -598 -1837 l-598 -1835 -248 0 -248 0 -584
1790 c-321 985 -590 1811 -598 1838 l-15 47 281 -2 282 -3 440 -1437z"/>
</g>
</svg>
